<?xml version="1.0" encoding="utf-8"?>
<!-- Generator: Adobe Illustrator 24.3.0, SVG Export Plug-In . SVG Version: 6.00 Build 0)  -->
<svg version="1.1" id="Layer_1" xmlns="http://www.w3.org/2000/svg" xmlns:xlink="http://www.w3.org/1999/xlink" x="0px" y="0px"
	 viewBox="0 0 64 64" enable-background="new 0 0 64 64" xml:space="preserve">
<path d="M55,33h-0.7L32.1,17.9c-3.8-2.6-8.4-3.3-12.8-2L15.7,17c-0.4,0.1-0.6,0.4-0.7,0.8c-0.1,0.4,0.1,0.8,0.4,1L35.8,33H9
	c-3.9,0-7,3.1-7,7s3.1,7,7,7h46c3.9,0,7-3.1,7-7S58.9,33,55,33z M18.3,18.4l1.6-0.5c3.8-1.1,7.8-0.5,11.1,1.7L50.7,33H39.3
	L18.3,18.4z M55,45H9c-2.8,0-5-2.2-5-5s2.2-5,5-5h46c2.8,0,5,2.2,5,5S57.8,45,55,45z"/>
<path d="M54,37c-1.7,0-3,1.3-3,3s1.3,3,3,3s3-1.3,3-3S55.7,37,54,37z M54,41c-0.6,0-1-0.4-1-1s0.4-1,1-1s1,0.4,1,1S54.6,41,54,41z"
	/>
<path d="M10,37c-1.7,0-3,1.3-3,3s1.3,3,3,3s3-1.3,3-3S11.7,37,10,37z M10,41c-0.6,0-1-0.4-1-1s0.4-1,1-1s1,0.4,1,1S10.6,41,10,41z"
	/>
<rect x="30.5" y="19.6" transform="matrix(0.5146 -0.8574 0.8574 0.5146 -4.0028 37.9289)" width="2" height="5.8"/>
</svg>
